# xmcd
#
# Track frame offsets: 
#        150
#        24999
#        45107
#        57304
#        70965
#        80381
#        95845
#        109809
#        119691
#        137389
#        154005
#        168122
#        180982
#        196607
#        221372
#        237162
#        261228
#        295277
#        310058
#        329307
#        339239
#
# Disc length: 4675 seconds
#
# Revision: 0
# Processed by: cddbd v1.5.1PL2 Copyright (c) Steve Scherf et al.
# Submitted via: ExactAudioCopy v0.95b3
#
DISCID=18124115
DTITLE=JJ Cale - Rarities
DYEAR=2004
DGENRE=Blues
TTITLE0=Mama Don't (Vancouver 1989)
TTITLE1=Hard to Find
TTITLE2=Cajun Moon (KCRW)
TTITLE3=Artificial Paradise (Alternate)
TTITLE4=Call Me the Breeze (Alt)
TTITLE5=Stone River
TTITLE6=Hang Ups
TTITLE7=Blonde Headed Woman
TTITLE8=Feels like Rain
TTITLE9=After Midnight (Vancouver 1989)
TTITLE10=Wish I Had me a Dollar (Belly Up Club, Solana, Ca 1981)
TTITLE11=Things Ain't Simple
TTITLE12=Woke Up This Morning
TTITLE13=Durango
TTITLE14=Santa Cruz
TTITLE15=Humdinger (Vancouver 1989)
TTITLE16=Hard Love (Taratata 1994)
TTITLE17=Cocaine (Taratata 1994)
TTITLE18=Someone Someone (Buddy Holly Tribute)
TTITLE19=Maybe Baby (Buddy Holly Tribute)
TTITLE20=Peggy Sue (Buddy Holly Tribute)
EXTD=
EXTT0=
EXTT1=
EXTT2=
EXTT3=
EXTT4=
EXTT5=
EXTT6=
EXTT7=
EXTT8=
EXTT9=
EXTT10=
EXTT11=
EXTT12=
EXTT13=
EXTT14=
EXTT15=
EXTT16=
EXTT17=
EXTT18=
EXTT19=
EXTT20=
PLAYORDER=
